# xmcd
#
# Track frame offsets: 
#        150
#        10274
#        25293
#        40572
#        65288
#        79816
#        98650
#        111768
#        135105
#        155461
#        176387
#        193689
#        209535
#
# Disc length: 2880 seconds
#
# Revision: 0
# Processed by: cddbd v1.5.2PL0 Copyright (c) Steve Scherf et al.
# Submitted via: ExactAudioCopy v0.99pb3
#
DISCID=9a0b3e0d
DTITLE=Mike Eldred Trio - 61 And 49
DYEAR=2011
DGENRE=Blues
TTITLE0=She's A Rocket
TTITLE1=Jake's Boogie
TTITLE2=Louise
TTITLE3=Ms. Gayle's Chicken House
TTITLE4=Jimmy, Jimmy
TTITLE5=This Old Train
TTITLE6=I Ain't Comin' Back
TTITLE7=Ruby's Blues
TTITLE8=For A Girl
TTITLE9=Mr. Newman
TTITLE10=Lookie Here
TTITLE11=61 And 49
TTITLE12=Don't Go Down There
EXTD=
EXTT0=
EXTT1=
EXTT2=
EXTT3=
EXTT4=
EXTT5=
EXTT6=
EXTT7=
EXTT8=
EXTT9=
EXTT10=
EXTT11=
EXTT12=
PLAYORDER=
